<?xml version="1.0" encoding="utf-8"?>
<!-- Generator: Adobe Illustrator 16.0.0, SVG Export Plug-In . SVG Version: 6.00 Build 0)  -->
<!DOCTYPE svg PUBLIC "-//W3C//DTD SVG 1.1//EN" "http://www.w3.org/Graphics/SVG/1.1/DTD/svg11.dtd">
<svg version="1.1" id="Layer_1" xmlns="http://www.w3.org/2000/svg" xmlns:xlink="http://www.w3.org/1999/xlink" x="0px" y="0px"
	 width="201px" height="201px" viewBox="0 0 801 801" enable-background="new 0 0 801 801" xml:space="preserve">
<polygon display="none" points="-5.828,801 -7.496,-13.932 806.822,-15.25 808.496,799.682 "/>
<radialGradient id="SVGID_1_" cx="401" cy="399.8218" r="203.8643" gradientUnits="userSpaceOnUse">
	<stop  offset="0" style="stop-color:#FFFFFF"/>
	<stop  offset="0.0851" style="stop-color:#FFEDD8"/>
	<stop  offset="0.2082" style="stop-color:#FFD5A7"/>
	<stop  offset="0.3345" style="stop-color:#FFC17D"/>
	<stop  offset="0.462" style="stop-color:#FFB05B"/>
	<stop  offset="0.591" style="stop-color:#FFA340"/>
	<stop  offset="0.7222" style="stop-color:#FF9A2D"/>
	<stop  offset="0.8568" style="stop-color:#FF9522"/>
	<stop  offset="1" style="stop-color:#FF931E"/>
</radialGradient>
<path display="none" fill="url(#SVGID_1_)" d="M208,217.399v185.302c0,15.108,2.727,33.302,6.604,47.758
	c9.421,35.146,28.733,67.48,57.127,93.693c29.202,26.954,78.519,61.553,121.759,69.095l3.408,0.753h7.298l3.411-0.72
	c43.44-7.593,92.5-41.911,121.919-69.069c28.393-26.213,48.101-58.577,57.522-93.723c3.877-14.457,6.951-32.679,6.951-47.787
	V217.399l-193-31.756L208,217.399z M505.02,522.738c-3.533,3.264-8.02,6.351-10.02,9.275V409.812c0-1.451,0.073-2.893,0.046-4.319
	L495,404.651v-55.229v-59.626l-62-10.073v69.699v154.845v67.437c-20,8.886-31.67,10.951-32.115,11.027l-0.022-0.004
	C400.423,582.65,388,580.591,369,571.703v-67.437V349.422v-69.699l-62,10.073v59.626v55.229l-0.045,0.841
	c-0.03,1.427,0.045,2.868,0.045,4.319v122.202c-3-2.925-6.984-6.012-10.52-9.275C239.53,470.161,243,403.351,243,403.351V243.149
	l157.502-25.923L558,243.149v160.201C558,403.351,561.971,470.161,505.02,522.738z"/>
<g>
	<radialGradient id="SVGID_2_" cx="400.9165" cy="400.2148" r="264.0511" gradientUnits="userSpaceOnUse">
		<stop  offset="0" style="stop-color:#FFFFFF"/>
		<stop  offset="0.0851" style="stop-color:#FFEDD8"/>
		<stop  offset="0.2082" style="stop-color:#FFD5A7"/>
		<stop  offset="0.3345" style="stop-color:#FFC17D"/>
		<stop  offset="0.462" style="stop-color:#FFB05B"/>
		<stop  offset="0.591" style="stop-color:#FFA340"/>
		<stop  offset="0.7222" style="stop-color:#FF9A2D"/>
		<stop  offset="0.8568" style="stop-color:#FF9522"/>
		<stop  offset="1" style="stop-color:#FF931E"/>
	</radialGradient>
	<path fill="url(#SVGID_2_)" d="M657,401.734v-230.98L401,128.43l-256,42.324v230.98c-1,20.193,2.604,42.044,7.857,61.636
		c5.863,21.874,14.64,42.89,26.359,62.563c12.322,20.682,27.775,39.878,46.334,57.014c39.452,36.418,98.203,76.156,155.015,86.247
		l9.569,2.807h20.423l9.611-2.701c57.12-9.983,115.9-49.188,155.617-85.854c17.999-16.615,33.115-35.416,45.25-55.386
		c12.282-20.209,21.703-41.991,27.755-64.566C654.048,443.903,657,421.928,657,401.734z M594,402.701
		c0,15.108-3.074,33.302-6.951,47.758c-9.422,35.146-28.805,67.481-57.198,93.693c-29.417,27.156-78.641,61.535-122.081,69.128
		l-3.573,0.72h-7.298l-3.385-0.753c-43.239-7.542-92.536-42.081-121.738-69.036c-28.392-26.213-47.75-58.577-57.171-93.723
		C210.727,436.031,208,417.81,208,402.701V217.399l193-31.756l193,31.756V402.701z"/>
	<radialGradient id="SVGID_3_" cx="400.5093" cy="399.9785" r="170.6171" gradientUnits="userSpaceOnUse">
		<stop  offset="0" style="stop-color:#FFFFFF"/>
		<stop  offset="0.0851" style="stop-color:#FFEDD8"/>
		<stop  offset="0.2082" style="stop-color:#FFD5A7"/>
		<stop  offset="0.3345" style="stop-color:#FFC17D"/>
		<stop  offset="0.462" style="stop-color:#FFB05B"/>
		<stop  offset="0.591" style="stop-color:#FFA340"/>
		<stop  offset="0.7222" style="stop-color:#FF9A2D"/>
		<stop  offset="0.8568" style="stop-color:#FF9522"/>
		<stop  offset="1" style="stop-color:#FF931E"/>
	</radialGradient>
	<path fill="url(#SVGID_3_)" d="M400.502,217.227L243,243.149v160.201c0,0-3.47,66.811,53.48,119.388
		c3.535,3.264,7.52,6.351,10.52,9.275V409.812c0-1.451-0.075-2.893-0.045-4.319l0.045-0.841v-55.229v-59.626l62-10.073v69.699
		v154.845v67.437c19,8.888,31.324,10.947,31.764,11.023l0.199,0.004c0.444-0.076,12.037-2.142,32.037-11.027v-67.437V349.422
		v-69.699l62,10.073v59.626v55.229l0.046,0.841c0.027,1.427-0.046,2.868-0.046,4.319v122.202c2-2.925,6.486-6.012,10.02-9.275
		C561.971,470.161,558,403.351,558,403.351V243.149L400.502,217.227z"/>
</g>
</svg>
